<svg xmlns="http://www.w3.org/2000/svg" viewBox="0 0 153.36 164.93"><defs><style>.cls-1{fill:#ed3333;}.cls-1,.cls-10,.cls-11,.cls-12,.cls-13,.cls-2,.cls-3,.cls-4,.cls-5,.cls-6,.cls-7,.cls-8,.cls-9{fill-rule:evenodd;}.cls-2{fill:#252728;}.cls-3{fill:#ef4d30;}.cls-4{fill:#edb82f;}.cls-5{fill:#f6e55b;}.cls-6{fill:#f6e85d;}.cls-7{fill:#ee4e31;}.cls-8{fill:#373d91;}.cls-9{fill:#f5e75e;}.cls-10{fill:#edba2f;}.cls-11{fill:#f7f5ed;}.cls-12{fill:#f6f3f9;}.cls-13{fill:#f6f5f9;}</style></defs><g id="Layer_2" data-name="Layer 2"><g id="Layer_1-2" data-name="Layer 1"><path class="cls-1" d="M59.59,153.6c1.06-.85,13.92-.37,16.49-.37H93.5A51.27,51.27,0,0,0,91,148.34l-28.8,0c.27-1.16.58-1.81.86-3.22.24-1.21.33-2.42.58-3.51a10.47,10.47,0,0,0-3.6.19,15.62,15.62,0,0,1-.45,3.45c-.28,1.32-.74,2-1,3.09H5V5H148.32V148.32H134.76a11.76,11.76,0,0,1-1.35,2.61,18.75,18.75,0,0,0-1.63,2.43h21.58V0H0V153.36H55.2c-.64,2.38-7.28,6.18-10.23,7a21.86,21.86,0,0,1-18.81-3,32.67,32.67,0,0,0-3.36-2.64v4.56a11.32,11.32,0,0,1,1.88,1.24,18.67,18.67,0,0,0,2.09,1.26,22.86,22.86,0,0,0,4.76,2c9.14,3,20.73-.77,26.55-8.31.47-.6,1-1.3,1.51-1.92"/><path class="cls-2" d="M112.08,25.68V52.32c0,3.89,4.56,3.89,4.56,0v-11h12V53c0,2.83,4.32,2.91,4.32.24V25a2.16,2.16,0,1,0-4.32,0V36.72h-12v-11c0-3.89-4.56-3.89-4.56,0"/><path class="cls-2" d="M50.64,55.2H69.36c2.61,0,2.61-4.32,0-4.32H55v-9.6c4.32,0,8.16.77,8.16-2.4,0-2.94-4.45-2.16-8.16-2.16v-9.6H69.12c3,0,3-4.32.24-4.32H50.64Z"/><path class="cls-3" d="M91,148.34a51.27,51.27,0,0,1,2.54,4.89H76.08c-2.57,0-15.43-.48-16.49.37H93.84a25,25,0,0,0,32.8,8.32c1.17-.63,3.15-2.29,4.16-2.56v-4.88a13.11,13.11,0,0,0-1.83,1.61c-.68.55-1.22,1-1.9,1.47a15.5,15.5,0,0,1-4.43,2.28l-.24.24c-3.26.65-4.33,1.4-8.65,1.24a21.94,21.94,0,0,1-13.89-5.83,21.65,21.65,0,0,1-5.65-22.15,21.34,21.34,0,0,1,3.38-6.47,16.06,16.06,0,0,1,3.53-3.67c.81-.6,1-.59,1.16-1.35a4.1,4.1,0,0,0-1.72-2.49C97,121,93,126.83,91.44,130.8c-3.92,9.89-.72,14.55-.48,17.54"/><path class="cls-2" d="M19.68,27.84c0,3.67,4.56,4.35,4.56-.72h3.6v25.2c0,3.91,4.56,3.8,4.56.24V27.12h3.84c0,1.39,0,3.6,1.92,3.6,3.23,0,2.4-3.61,2.4-7.92H19.68Z"/><path class="cls-2" d="M81.36,38.16c0,4.35,1.61,6.09,3.84,10.56,3.85,7.7,3.92,6.48,14.88,6.48a2.16,2.16,0,0,0,.43-4.27c-2.9-.59-8.66,1.17-10.12-1.4-1.06-1.87-4.61-8.89-4.56-10.62S89.48,30,90.48,28.32c2-3.34,11.76,1.46,11.76-3.6a2.22,2.22,0,0,0-2.16-1.92c-10.82,0-11-1.22-14.8,6.32-.89,1.77-3.92,7.13-3.92,9"/><path class="cls-4" d="M105.64,120.18c.16.75.1.48.44.77,1.17-1,4-1.58,5.83-1.84,10.73-1.55,20.33,5.53,22.79,16,1,4.36,0,10.27-1.77,13.26-.45,1.49-2.62,4.54-3.57,5-1.1,1.68-2.87,2.48-4.33,3.36a12.49,12.49,0,0,1-3.52,1.76,18.4,18.4,0,0,1-2,.61,17.11,17.11,0,0,1-4.76.52,19.43,19.43,0,0,1-11.86-3.74,12.83,12.83,0,0,1-2.78-2.5c-.91-.43-3.09-3.55-3.59-5a20.12,20.12,0,0,1-1.31-15c.27-.74.35-.88.58-1.58a18,18,0,0,1,2.36-4.36,16.9,16.9,0,0,1,4.6-4.52l-.44-1c-.17.76-.35.75-1.16,1.35a16.06,16.06,0,0,0-3.53,3.67,21.34,21.34,0,0,0-3.38,6.47,21.65,21.65,0,0,0,5.65,22.15,21.94,21.94,0,0,0,13.89,5.83c4.32.16,5.39-.59,8.65-1.24l.24-.24a15.5,15.5,0,0,0,4.43-2.28c.68-.46,1.22-.92,1.9-1.47a13.11,13.11,0,0,1,1.83-1.61l1-1.12a18.75,18.75,0,0,1,1.63-2.43,11.76,11.76,0,0,0,1.35-2.61c.93-1.22,1.58-4.31,1.84-6.2a22.5,22.5,0,0,0-.21-7.31c-.55-2.87-3.26-9-5.61-10.49-.1.84,0,.34-.27.68a21.72,21.72,0,0,0-10.65-6.08c-8.45-1.87-11.5,1-14.22,1.26"/><path class="cls-2" d="M107.28,73.68c0,1.09.36,1.44,1.2,1.44,1.55,0,1.22-3.88,1.06-4.9a43.71,43.71,0,0,1-.1-6.38c.69.79,3.63,7.64,4,8.67,1.2,2.95.49,2.61,4.11,2.61V61c0-1-.45-1.68-1.44-1.68-1.48,0-1,3.55-1,5v6.24L111.33,62c-1.35-3.29-.66-2.67-4-2.67Z"/><path class="cls-5" d="M96.83,112.56c.55,1,1.29,2.11,2,3.22a22.11,22.11,0,0,1,1.78,3.58,4.1,4.1,0,0,1,1.72,2.49l.44,1a5.38,5.38,0,0,1,1.68,3.84c1.1.09,1.22.47,1.44,1.46.72.35.28-.2.71.94l2.41,4.32c-.41.62-.72.72-1.13,1.27-1.3,1.72-1.27,4.33-1.27,6.41.72-.53.5-.65.48-1.92a3.2,3.2,0,0,1,.33-2.07c.49-1.26.84-2.31,1.83-3a4.25,4.25,0,0,1,1.2,2c1-.18.79-.33,1.61-.82s1.14-.4,1.68-.89a18.39,18.39,0,0,1-1.37-2.44l-.32-.44a28.9,28.9,0,0,1-2.32-4.2c-.6-.39-.48-.41-.7-1.08a2.87,2.87,0,0,1-.74-1.45c-.6-.39-.52-.33-.83-1.19a9.27,9.27,0,0,1-1.33-2.65c-.34-.29-.28,0-.44-.77a5.13,5.13,0,0,1-1.75-2.82,32.24,32.24,0,0,1-2-3.22,16.23,16.23,0,0,1-1.78-3.43c-.69.32-.91.64-1.58,1a8.71,8.71,0,0,0-1.67.85"/><path class="cls-6" d="M77.76,134.42c1.1.57,2.42,1.39,3.36,1.84.41-1.55,3.67-6.81,4.85-8.77.64-1.07,1.11-1.95,1.77-3,1.22-2,2.27-4,3.45-5.91l3.45-6c-.26-.21,0,0-.48-.31l-2.72-1.58L88,116.59c-1.21,2-2.18,3.9-3.41,5.94-.63,1-1.09,1.85-1.66,2.91-1.51,2.77-3.87,6.36-5.2,9"/><path class="cls-3" d="M47.76,120.23a3.84,3.84,0,0,0,1.69-3.11c-3.25-.27-9.06-5.08-21.17,0-2,.83-3.6,2.17-5.48,3.16v4.56c1.33-.31,1.41-1,2.4-1.68,4.89-3.52,9.5-5.27,15.8-4.52,2.92.35,6,1.58,6.76,1.63"/><path class="cls-6" d="M58.8,112.29c.23.91,6.19,11,6.77,12,1.21,2,2.19,3.89,3.41,6,.62,1,1.08,1.83,1.66,2.9a18.88,18.88,0,0,0,1.84,3c.71-.21,2.19-1.24,3.12-1.67-.51-1-1.14-1.9-1.68-2.9-2.59-4.78-5.93-9.92-8.56-14.72-.8-1.47-3.17-4.59-3.2-6.19-1.17.34-1.44,1.18-3.36,1.68"/><path class="cls-6" d="M62.9,108.72H90.47l0-3.6c-3.74,0-10.51-.4-13.88.07a59.22,59.22,0,0,1-6.79.17c-2.62,0-4.59-.24-7-.24Z"/><path class="cls-6" d="M43.92,141.84c1.45-.34,15-.58,16.08-.06a10.47,10.47,0,0,1,3.6-.19h7.86l-.07-3.6H63.56a5.49,5.49,0,0,1-3.56-.06L43.91,138Z"/><path class="cls-6" d="M49.45,117.12a3.84,3.84,0,0,1-1.69,3.11,5.59,5.59,0,0,1-.82,1.83l-3.1,5.3c-.45.81-3.85,6.21-3.9,7a22.85,22.85,0,0,0,3,1.7l5.95-10.39A17.86,17.86,0,0,1,51,122.4a4.54,4.54,0,0,1,1.79-3.09,13.07,13.07,0,0,1,1.82-3.49,34.21,34.21,0,0,0,2-3.51c-1.85-.43-2-1.16-3.36-1.62a16.87,16.87,0,0,1-1.69,3.3c-.64,1.11-1.13,2.44-2.14,3.13"/><path class="cls-7" d="M103.89,117.36a5.13,5.13,0,0,0,1.75,2.82c2.72-.23,5.77-3.13,14.22-1.26A21.72,21.72,0,0,1,130.51,125c.31-.34.17.16.27-.68l0-4.08-5.6-3c-6.67-3.36-15.11-2.88-21.31.16"/><path class="cls-8" d="M73,86.57c-1.3,1.8-1.69,1.83-1.69,4.87,0,2,.41,3.62,1.92,4.81a5.49,5.49,0,0,0,7.28-.42,6.58,6.58,0,0,0,1.32-2L82,90a2.07,2.07,0,0,0-.28-1.6c-.18-.32-.68-1-.87-1.29a3.89,3.89,0,0,0-2.65-1.67L78,86.57c-1.16,0-.25.15-.77-.32l-.39-.58c-1.73.91-1.42,1-3.84.9m3,2.46c2.49-1.14,3.71,2.27,1.79,3.34A2,2,0,0,1,74.85,90C75.1,89.05,75.34,89.31,75.93,89Z"/><path class="cls-4" d="M109,126.24c.22.67.1.69.7,1.08,3-1.08,6.06-1.59,9.33-.33a13.09,13.09,0,0,1,6.41,4.87c3.73,5.12,2.71,12.81-1.5,16.46-.93,2-5.89,4.16-9.44,4.08s-7.79-2.08-9.11-4.08l-.34-.39a10.57,10.57,0,0,1-2.35-3.65c-.83-2.06-1-3.09-.93-6.05,0-3.53,2.72-7.68,4.8-9.11-.43-1.14,0-.59-.71-.94-1.45,2.06-4,2.86-5.15,9.23a14,14,0,0,0,1.71,8.83c.53,1,1.1,1.38,1.52,2.18A21.46,21.46,0,0,1,105.6,150a10.35,10.35,0,0,0,2.14,1.47c1.54.91,3.55,1.14,5.11,1.89h3.35c1.49-.74,3.49-.78,5.34-1.82a24.79,24.79,0,0,0,4-3.16,21.76,21.76,0,0,0,2.2-3.62,19.41,19.41,0,0,0,1.13-4.88,13.39,13.39,0,0,0-.79-5.14c-1.78-4.7-4.59-7.19-9.12-8.88-5.15-1.92-8.14.34-10,.38"/><path class="cls-8" d="M110.4,136.11c-.23.94-2.73,4.14,0,7.12,4.73,5.06,11.3.46,9.51-5.19-.81-2.54-2.82-3.64-6.27-3.64-.54.49-1,.48-1.68.89s-.59.64-1.61.82m3.92,1.86c2.26-.84,3.56,3.19,1,3.77A2,2,0,1,1,114.32,138Z"/><path class="cls-8" d="M43.92,141.84V138a7.2,7.2,0,0,1-.95-1.9,22.85,22.85,0,0,1-3-1.7c-3.17,0-4.3.41-5.8,2.22a5.43,5.43,0,0,0-.12,6.24,5.56,5.56,0,0,0,5.24,2.5c2.6-.38,3.53-1.81,4.66-3.52m-6-3.67c2.53-1.36,3.86,2.65,1.52,3.49A1.9,1.9,0,1,1,37.88,138.17Z"/><path class="cls-8" d="M91.68,103.31a4.09,4.09,0,0,0-1.17,1.81l0,3.6,1,2,2.72,1.58c.5.27.22.1.48.31h2.19a8.71,8.71,0,0,1,1.67-.85c.67-.36.89-.68,1.58-1,.93-2,2.07-4.07.44-6.51-1.44-2.17-2.5-2.68-6-2.68-.6.7-.76.41-1.5.86s-.45.52-1.34.93m3.26,1.93a1.94,1.94,0,1,1,1.75,3.47A1.94,1.94,0,1,1,94.94,105.24Z"/><path class="cls-8" d="M72.48,136.09c-.4.72-.68,1.06-1.09,1.91l.07,3.6a5.47,5.47,0,0,0,7.91,3.05,5.58,5.58,0,0,0,2.72-3.52c.65-2.22-.26-3.32-1-4.87-.94-.45-2.26-1.27-3.36-1.84H75.6c-.93.43-2.41,1.46-3.12,1.67m3.43,2.13a1.87,1.87,0,1,1,1.59,3.38C75,142.49,73.51,139.4,75.91,138.22Z"/><path class="cls-8" d="M53.28,110.69c1.37.46,1.51,1.19,3.36,1.62l2.16,0c1.92-.5,2.19-1.34,3.36-1.68a3.94,3.94,0,0,1,.74-1.89l0-3.6c-3.51-6.53-9.84-3.2-10.68.61-.52,2.37.73,3.3,1.08,5m5.34-5.55c.62.75,1.35,1.38.85,2.78a1.94,1.94,0,0,1-2.64.85C55.09,108.05,55,104.92,58.62,105.14Z"/><path class="cls-2" d="M122.16,67.2c0,8.13-.21,7.92,7.44,7.92,3.49,0,2.88-4.45,2.88-6.72,0-1.07-1.12-.72-3.6-.72s-1.83,2.4-.48,2.4h1.92a12.56,12.56,0,0,1-.24,2.64c-1,.22-5.52,1-5.52-.72,0-6.15-.77-5.52,2.7-9.78,1.7-2.09,5.22.68,5.22-2,0-1.4-2.18-1-4.56-1-1.6,0-2.89,2.1-3.6,3.12-1,1.45-2.16,2.3-2.16,4.8"/><path class="cls-7" d="M51,122.4c2.15,1.11,4.72,4.18,6,6.34a18,18,0,0,1,3,9.2,5.49,5.49,0,0,0,3.56.06,20.78,20.78,0,0,0-1.13-6,22,22,0,0,0-2.35-5.09c-1.38-2.32-4.94-6.51-7.28-7.57A4.54,4.54,0,0,0,51,122.4"/><path class="cls-2" d="M92.4,59.52c-.15.55-.33.73-.06,1.25.52,1,2.13.67,3.9.67V73a11.77,11.77,0,0,0-3.84.24c-.21.79-.25,1.92,1,1.92h8.16a1.09,1.09,0,0,0,0-2.16H98.4V61.44c2.37,0,4.08.39,4.08-1.2a.92.92,0,0,0-1-1c-1.65,0-8-.22-9.12.24"/><path class="cls-9" d="M81.79,93.84c3.18-.07,3.83-1.16,5.14,1.63.25.54.59,1.14.92,1.72a52.72,52.72,0,0,0,3.83,6.12c.89-.41.57-.48,1.34-.93s.9-.16,1.5-.86a5.39,5.39,0,0,0-1-1.87c-1.06-1.62-4.77-8.77-5.83-9.29S83.58,90,82,90Z"/><path class="cls-2" d="M62.16,67c0,1.39,1.26,3.83,1.84,4.88,2.17,3.89,2.07,3.28,7.52,3.28.78,0,1-.57,1-1.2,0-2.08-4.43,0-5.67-1.53a22.26,22.26,0,0,1-2.25-5c0-1.18,1.63-4.52,2.15-5.29,1.35-2,5.77.78,5.77-1.91,0-1.46-2.53-1-5.28-1s-5,7.42-5,7.68"/><path class="cls-2" d="M32.16,67c0,1.52,1.32,3.8,1.91,4.81,2.11,3.64,1.15,3.35,7,3.35,1.09,0,1.44-.36,1.44-1.2,0-2.08-4.43,0-5.67-1.53-.47-.58-2.25-4.29-2.25-5.43,0-1,2.12-4.75,2.64-5.52h3.13c3.44,0,2.06-2.17,1.19-2.17-5.34,0-5.46-.7-7.44,3.12-.39.74-1.92,3.71-1.92,4.56"/><path class="cls-2" d="M47.28,60.24c0,2.79-.26,2,2.08,4.88,2,2.48,2,2.13,2,4.72,0,4.52-.85,5.69,1.92,5,.76-3.26-.4-6.61.64-8C56.13,64,57.6,63.4,57.6,61c0-1.66-2-2.77-2.37-.21-.36,2.77-2.25,3-2.67,4.53a16.28,16.28,0,0,1-2.37-2.67c-1.65-2.11.11-3.33-1.95-3.33a.92.92,0,0,0-1,1"/><path class="cls-1" d="M123.92,148.32H105.37c1.32,2,5.45,4,9.11,4.08s8.51-2.12,9.44-4.08"/><path class="cls-2" d="M77.28,60.24V75.12H86.4c.68,0,.93-.55,1.2-1-.27-.52-.42-1.2-1.2-1.2h-7V60.24a1.09,1.09,0,0,0-2.16,0"/><path class="cls-1" d="M116.2,153.36h5.72c1.44-.27,1.8-1.23,3.1-1.46l-.18,1.46h4.52c.95-.49,3.12-3.54,3.57-5H129.6c-1.26.69-.86,2.28-2.66,1.68a6.07,6.07,0,0,1,.9-1.68l-2.32.06a24.79,24.79,0,0,1-4,3.16c-1.85,1-3.85,1.08-5.34,1.82"/><path class="cls-1" d="M100.08,153.36h4.85l0-1.1c1.06.24,1.53.92,2.8,1.12l5.09,0c-1.56-.75-3.57-1-5.11-1.89A10.35,10.35,0,0,1,105.6,150a21.46,21.46,0,0,0-1.68-1.58l-2.4-.1c.32.81.61.73,1.08,1.6-1.45.92-1.78-.82-2.76-1.59H96.49c.5,1.49,2.68,4.61,3.59,5"/><path class="cls-2" d="M17.52,66.24c-.89,3.83-.13,2.88,9.12,2.88.93,0,.72-.62.72-2.16,0-.74-.7-1-1.44-1-1.57,0-7.25-.21-8.4.24"/><path class="cls-2" d="M44.64,80.16v5.76c0,.68.1.44.48.72.94-.25.76,0,.72-2.88,0-1.35-.1-2.35.78-2.86s.67,1.21.66,2.38c0,.62,0,1.33,0,1.94,0,1.24-.18.92.5,1.42,1.22-.33.72-2.2.72-5.28,1.59-.84,1.48-1.23,1.45,1.43,0,2.27-.36,3.24.47,3.85,1.26-.34.72-1.61.72-6,0-.91-1-1.2-1.92-1.2-1.14,0,.11.34-1,.34s.18-.34-1-.34c-1,0-.73.1-1.62.1-.63,0-1-.22-1,.62"/><path class="cls-2" d="M58.32,80.16v5.76c0,.68.1.44.48.72.94-.25.76,0,.72-2.88,0-1.35-.1-2.35.78-2.86s.67,1.21.66,2.38c0,.62,0,1.33,0,1.94,0,1.24-.18.92.5,1.42,1.22-.33.72-2.2.72-5.28,1.89-1,1.43-1.36,1.42,3.62,0,1.25-.19,1.15.5,1.66,1.26-.34.72-1.61.72-6,0-.91-1-1.2-1.92-1.2-1.14,0,.11.34-1,.34s.18-.34-1-.34c-1,0-.73.1-1.62.1-.63,0-1-.22-1,.62"/><path class="cls-2" d="M126.72,80.16c0,1.74.28,1.79,1,3.53.22.52.29.85.54,1.37.52,1,.14.76,1.07.86-.19.81-.5,1.23-.72,2.16-1.39,0-1.64-.34-1.92.72.52.71,0,.42,1.18.5.46,0,1.2,0,1.7,0,.56-2.4,3.36-6.43,3.36-9.12,0-.68-.1-.44-.48-.72-1.13.3-.54.08-.77,1.15a4.34,4.34,0,0,1-.49,1.43,19.89,19.89,0,0,0-1.14,2.7h-.48c-.31-1.32-1.3-2.57-1.63-4.13-.23-1.07.36-.85-.77-1.15-.4.28-.48,0-.48.72"/><path class="cls-2" d="M31,81.36c0,3.76-.61,5.28,3.84,5.28,3,0,2.4-3.47,2.4-5.28,0-2.58-6.24-2.58-6.24,0m1.2,2.88c0-2.46-.39-3.6,2.4-3.6a1.71,1.71,0,0,1,1,.47c.69.65.47,1.67.47,3.13,0,.66-.1.43-.46.74C34.43,85.94,32.16,85.39,32.16,84.24Z"/><path class="cls-2" d="M85.68,80.16v5.76c0,.66.18.58.72.72.71-.52.51-.65.49-1.91,0-.88,0-1.76,0-2.65,4.65-3.11,3.73-.78,3.82,3.14,0,1.24-.18.92.5,1.42,1.19-.32.72-1.09.72-5.28,0-2-1.6-1.92-2.4-1.92a4.66,4.66,0,0,0-2.64,1c-.07-.88-.08-.89-1-1-.16.29-.24.26-.24.72"/><path class="cls-2" d="M73,86.57c2.42.15,2.11,0,3.84-.9l.39.58c.52.47-.39.27.77.32l.28-1.13,0-5.06c-.11-.92.11-.71-.74-.94-.85.62-.48,2.34-.48,4.56-1,.7-1.67,1.44-3.36,1.44-.84-1.58-.41-2.42-.46-4.58,0-1.24.18-.92-.5-1.42-.94.25-.73.16-.75,1.41,0,3.8-.33,4.1,1,5.72"/><path class="cls-2" d="M114.24,78v1.44c-1.23,0-.69-.22-1.2.48.26,1,.06.69,1.2.72,0,6-.34,6,3.36,6A1.74,1.74,0,0,0,119,85c0-.92.07-.09-.24-.72-1.32.11-.72.21-1.2,1.2h-1.92a17.68,17.68,0,0,1-.24-4.8c3,0,2.86.24,3.12-.72-.5-.72-.24-.48-3.12-.48,0-2.16.15-1.93-.72-2.16-.4.28-.48,0-.48.72"/><path class="cls-2" d="M17.28,82.32v1.92c0,.68,2,2.4,2.64,2.4,3.37,0,3.33.29,3.6-.72-1-1.42-2.49.61-4.28-1.24-2-2,.21-3.85,1.18-4a15.56,15.56,0,0,1,1.93,0c1.12,0,.92.17,1.17-.75-.52-.75-.41-.48-3.36-.48a3.48,3.48,0,0,0-2.88,2.88"/><path class="cls-2" d="M100.8,80.64H102v4.8c-1.91,0-1.69-.12-1.92.72.59.85,1.24.48,4.32.48.68,0,.44-.1.72-.48-.23-.84,0-.72-1.92-.72,0-6.92.67-6-2.4-6-1,0-1,1.2,0,1.2"/><path class="cls-10" d="M116.64,122.88c0,1,1.33.73,2.36,1a17.64,17.64,0,0,1,2.44.92c1.79.83,3.7,3,4.2,2.06.67-1.3-2.68-2.74-3.56-3.18a12.39,12.39,0,0,0-5.44-1.52Z"/><path class="cls-10" d="M122.4,137.52c0,2.53.17,3.79-1.4,6a7.1,7.1,0,0,1-4.56,3.12,7.28,7.28,0,0,1-4.91-.45,7.1,7.1,0,0,1-3.15-2.61c-.89-1.38-.68-2-1.34-2.5-.79,1.65,3.82,7.64,9.28,6.16a8.3,8.3,0,0,0,6.4-6.08c.19-.65.59-3-.32-3.68"/><path class="cls-10" d="M101.28,129.36c-1.79,0-3.17,4.71-3.51,6.34-.19.94-.79,2.3.35,2.27,1,0,.78-1.15,1-2.13,1.19-5.32,4-6.48,2.16-6.48"/><path class="cls-4" d="M127.84,148.32a6.07,6.07,0,0,0-.9,1.68c1.8.6,1.4-1,2.66-1.68.16-.7,2.1-3.62,2.16-6.48-1-.23-1.11-.43-1.43.71-.68,2.42-.85,3.48-2.49,5.77"/><path class="cls-11" d="M94.94,105.24a1.94,1.94,0,1,0,1.75,3.47,1.94,1.94,0,1,0-1.75-3.47"/><path class="cls-12" d="M114.32,138a2,2,0,1,0,1,3.77c2.55-.58,1.25-4.61-1-3.77"/><path class="cls-11" d="M58.62,105.14c-3.62-.22-3.53,2.91-1.79,3.63a1.94,1.94,0,0,0,2.64-.85c.5-1.4-.23-2-.85-2.78"/><path class="cls-11" d="M37.88,138.17a1.9,1.9,0,1,0,1.52,3.49c2.34-.84,1-4.85-1.52-3.49"/><path class="cls-11" d="M75.93,89c-.59.28-.83,0-1.08,1a2,2,0,0,0,2.87,2.33c1.92-1.07.7-4.48-1.79-3.34"/><path class="cls-13" d="M75.91,138.22c-2.4,1.18-.89,4.27,1.59,3.38a1.87,1.87,0,1,0-1.59-3.38"/><path class="cls-4" d="M99.84,148.33c1,.77,1.31,2.51,2.76,1.59-.47-.87-.76-.79-1.08-1.6-2.29-3.47-1.78-5.35-3.12-6.24-1,.64-.78.91,0,3.09.56,1.49,1.2,2.23,1.41,3.16"/><path class="cls-10" d="M128.4,129.36c-2.22,0,.48,1,1.71,5.73.18.68.16,2.07.8,2.32s.18.12.45,0c.47-.25.15,0,.33-.39.54-1.33-1.39-4.66-1.88-5.92-.24-.61-.56-1.71-1.41-1.71"/><path class="cls-10" d="M112,131.52l.32.44c.92,0,2.62-1.42,6.38.85,2.91,1.76,2.75,4,3.7,4.71,0-2.51-2-4.6-4.19-5.65l-2.35-.77a8.5,8.5,0,0,0-2.08,0c-1,.14-.61.37-1.78.46"/><path class="cls-10" d="M107.41,123.6c.31.86.23.8.83,1.19,1-.85,2.72-.78,4.08-1.43,0-2-2-1-4.91.24"/><path class="cls-2" d="M101.28,77a1,1,0,0,0,1.92.24,1,1,0,0,0-1.92-.24"/></g></g></svg>